<?xml version="1.0" encoding="utf-8"?>
<svg viewBox="0 0 24 24" width="24" height="24" xmlns="http://www.w3.org/2000/svg" xmlns:xlink="http://www.w3.org/1999/xlink" xmlns:bx="https://boxy-svg.com">
  <defs>
    <linearGradient id="gradient-1-0" gradientUnits="userSpaceOnUse" x1="17.035" y1="4.029" x2="17.035" y2="7.399" gradientTransform="matrix(1.000003, 0, 0, 1.000003, -0.000042, -0.000015)" xlink:href="#gradient-1"/>
    <linearGradient id="gradient-1" bx:pinned="true">
      <stop style="stop-color: rgb(255, 0, 0);" offset="0"/>
      <stop style="" offset="0.781"/>
    </linearGradient>
  </defs>
  <path d="M23.953 4.57a10 10 0 01-2.825.775 4.958 4.958 0 002.163-2.723c-.951.555-2.005.959-3.127 1.184a4.92 4.92 0 00-8.384 4.482C7.69 8.095 4.067 6.13 1.64 3.162a4.822 4.822 0 00-.666 2.475c0 1.71.87 3.213 2.188 4.096a4.904 4.904 0 01-2.228-.616v.06a4.923 4.923 0 003.946 4.827 4.996 4.996 0 01-2.212.085 4.936 4.936 0 004.604 3.417 9.867 9.867 0 01-6.102 2.105c-.39 0-.779-.023-1.17-.067a13.995 13.995 0 007.557 2.209c9.053 0 13.998-7.496 13.998-13.985 0-.21 0-.42-.015-.63A9.935 9.935 0 0024 4.59z"/>
  <ellipse style="stroke-width: 0px; stroke: rgb(255, 0, 0); fill: url(#gradient-1-0);" cx="17.035" cy="5.714" rx="1.718" ry="1.685" transform="matrix(0.866025, -0.5, 0.5, 0.866025, -0.574717, 9.282999)"/>
  <ellipse style="stroke-width: 0px; stroke: rgb(255, 0, 0);" cx="17.817" cy="6.668" rx="2.015" ry="2.015"/>
</svg>